# xmcd CD database file
#
# Track frame offsets:
#	150
#	13741
#	26541
#	43761
#	57756
#	68985
#	83487
#	100131
#	117241
#	131524
#	148942
#	150419
#	163973
#	176740
#	193990
#	208040
#	219443
#	233999
#	250860
#	268119
#	282351
#
# Disc length: 3997 seconds
#
# Revision: 2
# Processed by: cddbd v1.5.2PL0 Copyright (c) Steve Scherf et al.
# Submitted via: CDex 1.70beta2
#
DISCID=380f9b15
DTITLE=George Roberts - Big Band Ballads
DYEAR=1985
DGENRE=Jazz
TTITLE0=Steppin Out With My Baby
TTITLE1=Star Dust
TTITLE2=What's New
TTITLE3=Sky Lark
TTITLE4=One for My Baby
TTITLE5=It Might As Well Be Spring
TTITLE6=Night And Day
TTITLE7=Yesterdays
TTITLE8=Learnin The Blues
TTITLE9=Prisoner Of Love
TTITLE10=Tuning Note
TTITLE11=Steppin Out With My Baby 
TTITLE12=Star Dust
TTITLE13=What's New
TTITLE14=Sky Lark
TTITLE15=One For My Baby
TTITLE16=It Might As Well Be Spring
TTITLE17=Night And Day
TTITLE18=Yesterdays
TTITLE19=Learnin The Blues
TTITLE20=Prisoner Of Love
EXTD=YEAR: 1985
EXTT0=
EXTT1=
EXTT2=
EXTT3=
EXTT4=
EXTT5=
EXTT6=
EXTT7=
EXTT8=
EXTT9=
EXTT10=
EXTT11=
EXTT12=
EXTT13=
EXTT14=
EXTT15=
EXTT16=
EXTT17=
EXTT18=
EXTT19=
EXTT20=
PLAYORDER=
